<svg width="16" height="16" viewBox="0 0 16 16" fill="none" xmlns="http://www.w3.org/2000/svg">
<rect width="16" height="16" rx="3" fill="black"/>
<path d="M2.44112 10.9888C2.35841 10.9888 2.29075 10.9624 2.23812 10.9098C2.18549 10.8572 2.15918 10.7895 2.15918 10.7068V5.40643C2.15918 5.32373 2.18549 5.25607 2.23812 5.20344C2.29075 5.15081 2.35841 5.1245 2.44112 5.1245H3.67035C3.75306 5.1245 3.82072 5.15081 3.87335 5.20344C3.92598 5.25607 3.95229 5.32373 3.95229 5.40643V5.78987C4.10266 5.58687 4.31317 5.4102 4.58383 5.25983C4.85448 5.10195 5.17401 5.01924 5.54241 5.01173C6.40701 4.99669 7.00095 5.32373 7.32424 5.99286C7.49716 5.70717 7.74526 5.4741 8.06855 5.29366C8.39184 5.1057 8.74519 5.01173 9.12863 5.01173C9.51958 5.01173 9.86918 5.10194 10.1774 5.28238C10.4932 5.4553 10.7451 5.72596 10.933 6.09436C11.121 6.45524 11.2149 6.92513 11.2149 7.50404V10.7068C11.2149 10.7895 11.1849 10.8572 11.1247 10.9098C11.0721 10.9624 11.0082 10.9888 10.933 10.9888H9.62483C9.54213 10.9888 9.47071 10.9624 9.41056 10.9098C9.35793 10.8572 9.33162 10.7895 9.33162 10.7068V7.58298C9.33162 7.31984 9.29403 7.11308 9.21885 6.96272C9.14366 6.80483 9.04217 6.69206 8.91436 6.6244C8.78654 6.55673 8.63994 6.5229 8.47454 6.5229C8.33921 6.5229 8.20388 6.55673 8.06855 6.6244C7.94074 6.69206 7.83548 6.80483 7.75278 6.96272C7.6776 7.11308 7.64001 7.31984 7.64001 7.58298V10.7068C7.64001 10.7895 7.61369 10.8572 7.56107 10.9098C7.50844 10.9624 7.44077 10.9888 7.35807 10.9888H6.04989C5.96719 10.9888 5.89952 10.9624 5.8469 10.9098C5.79427 10.8572 5.76795 10.7895 5.76795 10.7068V7.58298C5.76795 7.31984 5.7266 7.11308 5.6439 6.96272C5.5612 6.80483 5.45595 6.69206 5.32814 6.6244C5.20032 6.55673 5.05748 6.5229 4.89959 6.5229C4.76426 6.5229 4.62894 6.55673 4.49361 6.6244C4.3658 6.69206 4.26054 6.80483 4.17784 6.96272C4.10266 7.11308 4.06506 7.31608 4.06506 7.5717V10.7068C4.06506 10.7895 4.03499 10.8572 3.97484 10.9098C3.92222 10.9624 3.85455 10.9888 3.77185 10.9888H2.44112Z" fill="white"/>
<path d="M12.207 10.9887C12.1281 10.9887 12.0636 10.9637 12.0135 10.9135C11.9633 10.8633 11.9382 10.7988 11.9382 10.72V9.35485C11.9382 9.28319 11.9633 9.22228 12.0135 9.17212C12.0636 9.11479 12.1281 9.08612 12.207 9.08612H13.5614C13.6402 9.08612 13.7047 9.11479 13.7548 9.17212C13.8122 9.22228 13.8408 9.28319 13.8408 9.35485V10.72C13.8408 10.7988 13.8122 10.8633 13.7548 10.9135C13.7047 10.9637 13.6402 10.9887 13.5614 10.9887H12.207Z" fill="white"/>
</svg>
